Coordinates
version=1
nRows=19
nColumns=36
inDegrees=yes

Units are S.I. units (second, meters, Newtons, ...)
If the header above contains a line with 'inDegrees', this indicates whether rotational values are in degrees (yes) or radians (no).

endheader
time	pelvis_tilt	pelvis_list	pelvis_rotation	pelvis_tx	pelvis_ty	pelvis_tz	hip_flexion_r	hip_adduction_r	hip_rotation_r	knee_angle_r	knee_angle_r_beta	ankle_angle_r	subtalar_angle_r	mtp_angle_r	hip_flexion_l	hip_adduction_l	hip_rotation_l	knee_angle_l	knee_angle_l_beta	ankle_angle_l	subtalar_angle_l	mtp_angle_l	lumbar_extension	lumbar_bending	lumbar_rotation	arm_flex_r	arm_add_r	arm_rot_r	elbow_flex_r	pro_sup_r	arm_flex_l	arm_add_l	arm_rot_l	elbow_flex_l	pro_sup_l
      1.68333330	    -10.59643617	      0.18673244	      0.37764635	     -0.98357999	      1.22796458	     -0.06692600	     26.16806167	     -1.68669294	     -4.63993952	     28.31328660	      0.49416007	     11.27741135	    -22.67911481	     -7.49999987	     26.54680741	     -1.18247377	     -0.29510761	     28.53824305	      0.49808630	     14.07758760	     -9.15969045	     -7.49999987	    -33.74558245	     -0.44796126	     -1.39926824	     -4.02387192	    -11.38842689	     11.90088880	      9.81859659	     62.02737119	     -2.06172299	    -13.55828718	      7.70251562	      5.17373833	     55.69452664
      1.68750000	    -10.62170423	      0.15286594	      0.39065323	     -0.98562906	      1.22935406	     -0.06721849	     26.56342848	     -1.73557513	     -4.68468612	     28.93413384	      0.50499590	     11.49982392	    -22.61698211	     -7.49999987	     26.99871096	     -1.25345549	     -0.39667973	     29.30355603	      0.51144354	     14.33135812	     -9.05027492	     -7.49999987	    -34.26094396	     -0.36989706	     -1.38229330	     -4.17674244	    -11.27665543	     11.18133938	      9.33562789	     61.65052722	     -2.28338361	    -13.41961000	      8.02902808	      5.09008844	     55.86151281
      1.69166670	    -10.52124811	      0.10453214	      0.44871216	     -0.98567184	      1.22833040	     -0.06691940	     26.83993681	     -1.78735984	     -4.81388513	     29.59938041	      0.51660664	     11.72222259	    -22.55457965	     -7.49999987	     27.35603532	     -1.31279849	     -0.40451268	     30.12103666	      0.52571126	     14.57690428	     -8.84597101	     -7.49999987	    -34.94532567	     -0.34319397	     -1.40899037	     -4.38029190	    -11.19354258	     10.33549929	      9.21116053	     61.22902125	     -2.54022343	    -13.36947818	      8.35057285	      5.02028987	     56.02837918
      1.69583330	    -10.58355505	      0.09640474	      0.48921231	     -0.98570979	      1.22955623	     -0.06681352	     27.28092606	     -1.88748425	     -4.91834846	     30.26185334	      0.52816898	     11.89512301	    -22.48582767	     -7.49999987	     27.78046372	     -1.30335847	     -0.34472563	     30.74773925	      0.53664929	     14.71924878	     -8.67657793	     -7.49999987	    -35.40846323	     -0.35035691	     -1.67785658	     -4.73851260	    -11.07095526	      9.96046795	      9.02373349	     61.08462399	     -3.01045558	    -13.34773568	      8.78955080	      4.81619553	     56.11872720
      1.70000000	    -10.34760615	      0.08982226	      0.49966646	     -0.98723661	      1.23167469	     -0.06433143	     27.33973197	     -1.87353556	     -4.84200309	     30.71801770	      0.53613055	     11.95852188	    -22.53395019	     -7.49999987	     27.79910679	     -1.38373949	     -0.41940453	     31.18495503	      0.54428014	     14.80309127	     -8.48116297	     -7.49999987	    -36.37112376	     -0.48197115	     -1.74582818	     -4.89853812	    -10.76561581	      9.54805148	      8.74572344	     60.96669592	     -3.03395661	    -13.46800251	      9.61690393	      4.80647526	     56.33060665
      1.70416670	    -10.16751334	      0.03723054	      0.53151699	     -0.98527130	      1.23009774	     -0.06474992	     27.39059037	     -1.87929544	     -4.95095395	     31.16071889	      0.54385714	     12.17092145	    -22.34840582	     -7.49999987	     27.87675510	     -1.48219914	     -0.43360075	     31.68914587	      0.55307993	     14.91885320	     -8.31000530	     -7.49999987	    -37.05797069	     -0.40681780	     -2.06263780	     -5.10007166	    -10.41348750	      8.02796628	      8.53158710	     60.58078950	     -3.50770152	    -13.47039217	     10.88640929	      4.73878831	     56.11920536
      1.70833330	     -9.90851046	      0.00163971	      0.54614561	     -0.98672979	      1.23151484	     -0.06431933	     27.32156170	     -1.86601605	     -4.98886542	     31.50939855	      0.54994275	     12.34135681	    -22.23982534	     -7.49999987	     27.84820759	     -1.58470701	     -0.51156553	     32.11047466	      0.56043351	     15.03839378	     -8.18065176	     -7.49999987	    -37.91952929	     -0.38849700	     -2.35208964	     -5.25513179	     -9.99951061	      5.82861891	      8.60133110	     60.10800627	     -3.66475896	    -13.60493234	     12.12752246	      4.59649295	     55.77562422
      1.71250000	     -9.42732252	     -0.05019499	      0.61749061	     -0.98701753	      1.23195539	     -0.06421181	     26.98178452	     -1.91303424	     -5.29326033	     31.84728376	      0.55583996	     12.65903353	    -21.91169574	     -7.49999987	     27.55655194	     -1.67862610	     -0.55682584	     32.50729479	      0.56735932	     15.21816337	     -7.92797377	     -7.49999987	    -39.07716195	     -0.37652935	     -2.50781481	     -5.39326196	     -9.81191425	      4.41267589	      9.27932106	     59.75725354	     -3.71396330	    -13.70510530	     12.45729031	      4.17848614	     55.47074340
      1.71666670	     -9.29955829	     -0.17053004	      0.74047743	     -0.98870858	      1.22875836	     -0.06315489	     27.01646811	     -1.86033815	     -5.61692664	     32.18578884	      0.56174799	     13.09684492	    -21.59103480	     -7.49999987	     27.79777571	     -1.89253083	     -0.66273816	     33.15558819	      0.57867418	     15.56192396	     -7.62323466	     -7.49999987	    -39.85493989	     -0.30386284	     -2.74114692	     -5.55128083	     -9.52263996	      2.46036783	      9.37279724	     59.26039767	     -3.97243058	    -13.82425887	     13.09583694	      4.11170666	     55.36571960
      1.72083330	     -9.50231791	     -0.19408086	      0.64811931	     -0.98681421	      1.22662971	     -0.06469764	     27.59490419	     -1.76642997	     -5.23803987	     32.81338203	      0.57270156	     12.96959733	    -22.44219413	     -7.49999987	     28.37687026	     -2.06248080	     -0.95806599	     33.83144763	      0.59047015	     15.75844041	     -7.67126726	     -7.49999987	    -40.02046194	     -0.34343299	     -2.60586225	     -5.53313407	     -9.12325725	     -4.51271979	      8.82271412	     61.83421555	     -4.42490452	    -14.12879655	     16.79234380	      4.54989146	     54.70108843
      1.72500000	     -9.59505701	     -0.29222188	      0.70124697	     -0.98702344	      1.22276690	     -0.06441709	     28.01881194	     -1.77268241	     -5.39306895	     33.48869222	      0.58448794	     13.47153315	    -22.28902069	     -7.49999987	     28.92444656	     -2.21948303	     -1.02793530	     34.64724193	      0.60470845	     16.08750099	     -7.69954218	     -7.49999987	    -40.35543520	     -0.12076462	     -2.56073302	     -5.84196764	     -9.09758560	     -5.39165096	      8.52575822	     61.67521499	     -4.77998524	    -14.32301452	     16.78671543	      4.40828242	     54.69412887
      1.72916670	     -9.61648130	     -0.38809783	      0.73251916	     -0.98698054	      1.22081985	     -0.06488270	     28.45213743	     -1.74696547	     -5.37750819	     34.33839903	      0.59931812	     13.64845352	    -22.51809851	     -7.49999987	     29.44174506	     -2.41413335	     -1.21318426	     35.55463681	      0.62054548	     16.61313598	     -7.34589794	     -7.49999987	    -40.77309380	      0.09804745	     -2.66330984	     -5.97558789	     -9.09926082	     -6.39724740	      8.31719209	     61.70479737	     -5.34590570	    -14.32105633	     17.00926193	      4.58871879	     54.63883182
      1.73333330	     -9.65022236	     -0.42869901	      0.82947020	     -0.98751448	      1.22127421	     -0.06601683	     28.87445566	     -1.82354692	     -5.38001097	     35.18458142	      0.61408679	     13.85820627	    -22.52770517	     -7.49999987	     29.93853956	     -2.45437210	     -1.23168659	     36.32247441	      0.63394677	     16.92040588	     -7.31881938	     -7.49999987	    -41.31884955	      0.21069969	     -2.63730696	     -6.07845399	     -9.30534798	     -6.80686829	      8.66641269	     61.62464577	     -5.36105304	    -14.24616247	     17.07482705	      4.38287314	     54.65037897
      1.73750000	     -9.64181663	     -0.51106419	      0.87063731	     -0.98975252	      1.21982091	     -0.06551821	     29.28482296	     -1.80538408	     -5.37365846	     36.00359899	      0.62838134	     14.27079638	    -22.46031492	     -7.49999987	     30.44706303	     -2.62961708	     -1.42562960	     37.19963850	      0.64925617	     17.32585711	     -7.15010647	     -7.49999987	    -41.84477284	      0.26826069	     -2.41837312	     -5.93368951	     -9.46224063	     -7.39493393	      8.30501201	     61.78214028	     -5.58290743	    -14.17327370	     17.25901857	      4.77720612	     54.50603278
      1.74166670	     -9.80905834	     -0.50934770	      0.95250529	     -0.98997082	      1.21725765	     -0.06453697	     29.90423598	     -1.88185335	     -5.36346457	     36.88359739	      0.64374021	     14.66941413	    -22.38758740	     -7.49999987	     31.11416040	     -2.67824054	     -1.51518003	     37.99015882	      0.66305335	     17.54402608	     -7.15345114	     -7.49999987	    -42.20836406	      0.08314617	     -2.24171137	     -5.92843658	     -9.57975700	     -7.85368716	      8.40255431	     61.84310725	     -5.50437102	    -14.12941722	     17.29833990	      4.81163460	     54.33640114
      1.74583330	    -10.12892214	     -0.53188360	      1.05011616	     -0.98928373	      1.21514765	     -0.06678194	     30.61669084	     -1.98607920	     -5.33103831	     37.67263759	      0.65751156	     14.98268116	    -22.40839446	     -7.49999987	     31.90364858	     -2.68523833	     -1.54163074	     38.66537683	      0.67483813	     17.83978120	     -7.09013604	     -7.49999987	    -42.37826779	      0.05424897	     -2.29763046	     -5.73273225	     -9.99497204	     -6.94933862	      7.82586066	     66.07109623	     -5.82678188	    -13.91764374	     15.91490787	      5.15273185	     50.62787844
      1.75000000	    -10.13192835	     -0.50623029	      1.09902659	     -0.98909745	      1.21117153	     -0.06860071	     31.12571771	     -2.15116248	     -5.29751613	     38.61715491	      0.67399650	     15.34133653	    -22.48995847	     -7.49999987	     32.34521285	     -2.63830341	     -1.59280073	     39.40948682	      0.68782530	     18.19681065	     -7.10308525	     -7.49999987	    -42.74929640	     -0.13601710	     -2.01480844	     -5.96842809	    -10.19033328	     -7.33097980	      7.87094525	     65.53307829	     -5.56164481	    -13.62954481	     15.64479927	      4.94214433	     50.87278070
      1.75416670	    -10.25246978	     -0.50961648	      1.16893909	     -0.98803504	      1.20877943	     -0.06781151	     31.72869814	     -2.23368237	     -5.17496769	     39.58814517	      0.69094348	     15.83686511	    -22.45181532	     -7.49999987	     32.90291213	     -2.65803824	     -1.68971488	     40.19234188	      0.70148870	     18.74698070	     -6.81272131	     -7.49999987	    -42.90654972	     -0.17365984	     -1.83723258	     -6.07990265	    -10.41998508	     -7.61468621	      7.00941052	     66.01925399	     -5.75892754	    -13.29598800	     13.58450927	      5.07858611	     49.42504371
      1.75833330	    -10.11314584	     -0.53286159	      1.19058766	     -0.98725225	      1.20937841	     -0.06679626	     31.91384905	     -2.31563522	     -5.23635772	     40.28064184	      0.70302982	     16.06100793	    -22.64193309	     -7.49999987	     33.03955623	     -2.69586250	     -1.74682349	     40.76246594	      0.71143924	     19.05050246	     -6.79297434	     -7.49999987	    -43.47244967	     -0.17878871	     -1.36671582	     -6.32996705	    -10.40410784	     -7.44016100	      6.88269366	     66.00395586	     -5.52487100	    -13.07642780	     12.31051284	      4.74885907	     49.40730535
